<svg width="20" height="20" viewBox="0 0 20 20" fill="none" xmlns="http://www.w3.org/2000/svg">
<path d="M13.1633 15.5867C13.3394 15.7628 13.4384 16.0017 13.4384 16.2508C13.4384 16.4998 13.3394 16.7387 13.1633 16.9148C12.9872 17.091 12.7483 17.1899 12.4992 17.1899C12.2502 17.1899 12.0113 17.091 11.8352 16.9148L5.58519 10.6648C5.49779 10.5777 5.42844 10.4742 5.38112 10.3603C5.33381 10.2463 5.30945 10.1242 5.30945 10.0008C5.30945 9.87738 5.33381 9.75521 5.38112 9.64125C5.42844 9.5273 5.49779 9.42381 5.58519 9.33671L11.8352 3.08671C12.0113 2.91059 12.2502 2.81165 12.4992 2.81165C12.7483 2.81165 12.9872 2.91059 13.1633 3.08671C13.3394 3.26283 13.4384 3.5017 13.4384 3.75077C13.4384 3.99984 13.3394 4.23871 13.1633 4.41483L7.57816 9.99999L13.1633 15.5867Z" fill="#1F2223"/>
</svg>
